# xmcd CD database file
#
# Track frame offsets:
#	150
#	15845
#	30825
#	53957
#	70782
#	91702
#	115162
#	131020
#	152110
#	171210
#	186027
#	203645
#
# Disc length: 2937 seconds
#
# Revision: 0
# Processed by: cddbd v1.5.2PL0 Copyright (c) Steve Scherf et al.
# Submitted via: CDex 1.70beta2
#
DISCID=8b0b770c
DTITLE=Buddy Childers - Buddy Childers with the Russ Garcia Strings
DYEAR=1996
DGENRE=Jazz
TTITLE0=Come Home Again
TTITLE1=The Shadow of Your Smile
TTITLE2=Stardust
TTITLE3=You Are Too Beautiful
TTITLE4=Body and Soul
TTITLE5='Round Midnight
TTITLE6=My Diane
TTITLE7=Lush Life
TTITLE8=Stars Fell on Alabama
TTITLE9=Sophisticated Lady
TTITLE10=Angel Eyes
TTITLE11=Din Di (Jin Je)
EXTD=YEAR: 1996
EXTT0=
EXTT1=
EXTT2=
EXTT3=
EXTT4=
EXTT5=
EXTT6=
EXTT7=
EXTT8=
EXTT9=
EXTT10=
EXTT11=
PLAYORDER=
